<?xml version="1.0" encoding="UTF-8"?>
<svg xmlns="http://www.w3.org/2000/svg" width="1180" height="650" viewBox="0 0 1180 650" font-family="Helvetica, Arial, sans-serif">
  <defs>
    <marker id="arrow" markerWidth="10" markerHeight="8" refX="8" refY="3" orient="auto"><path d="M0,0 L8,3 L0,6 z" fill="#5f6368"/></marker>
    <marker id="arrowY" markerWidth="10" markerHeight="8" refX="8" refY="3" orient="auto"><path d="M0,0 L8,3 L0,6 z" fill="#f9a825"/></marker>
    <marker id="arrowG" markerWidth="10" markerHeight="8" refX="8" refY="3" orient="auto"><path d="M0,0 L8,3 L0,6 z" fill="#9aa0a6"/></marker>
  </defs>
  <rect x="0" y="0" width="1180" height="650" fill="#ffffff"/>

  <text x="40" y="38" font-size="22" font-weight="bold" fill="#202124">BRE Digital — AI-assistent (OpenClaw-stack)</text>
  <text x="40" y="60" font-size="14" fill="#5f6368">Topologi per 5. juli 2026</text>

  <!-- ===== CONNECTORS (bak boksene) ===== -->
  <!-- Frode <-> Agent -->
  <line x1="520" y1="138" x2="520" y2="160" stroke="#5f6368" stroke-width="2" marker-end="url(#arrow)" marker-start="url(#arrow)"/>
  <!-- Agent - Memory / Cron (assosiasjon) -->
  <line x1="400" y1="186" x2="350" y2="176" stroke="#5f6368" stroke-width="1.6"/>
  <line x1="400" y1="214" x2="350" y2="240" stroke="#5f6368" stroke-width="1.6"/>
  <!-- Cron -> pills (trigger) -->
  <line x1="250" y1="274" x2="195" y2="330" stroke="#5f6368" stroke-width="1.8" marker-end="url(#arrow)"/>
  <line x1="255" y1="274" x2="475" y2="330" stroke="#5f6368" stroke-width="1.8" marker-end="url(#arrow)"/>
  <line x1="260" y1="274" x2="755" y2="330" stroke="#5f6368" stroke-width="1.8" marker-end="url(#arrow)"/>
  <text x="300" y="308" font-size="11" fill="#80868b">trigger</text>
  <!-- pill -> script -->
  <line x1="195" y1="380" x2="195" y2="430" stroke="#5f6368" stroke-width="1.8" marker-end="url(#arrow)"/>
  <line x1="475" y1="380" x2="475" y2="430" stroke="#5f6368" stroke-width="1.8" marker-end="url(#arrow)"/>
  <line x1="755" y1="380" x2="755" y2="430" stroke="#5f6368" stroke-width="1.8" marker-end="url(#arrow)"/>
  <!-- script -> ekstern/target -->
  <line x1="195" y1="478" x2="195" y2="528" stroke="#5f6368" stroke-width="1.8" marker-end="url(#arrow)"/>
  <line x1="475" y1="478" x2="475" y2="528" stroke="#5f6368" stroke-width="1.8" marker-end="url(#arrow)"/>
  <line x1="755" y1="478" x2="755" y2="528" stroke="#5f6368" stroke-width="1.8" marker-end="url(#arrow)"/>
  <!-- Agent -> verktøy -->
  <line x1="640" y1="176" x2="890" y2="176" stroke="#5f6368" stroke-width="1.8" marker-end="url(#arrow)"/>
  <line x1="640" y1="196" x2="890" y2="240" stroke="#5f6368" stroke-width="1.8" marker-end="url(#arrow)"/>
  <line x1="640" y1="214" x2="890" y2="304" stroke="#f9a825" stroke-width="1.8" stroke-dasharray="6 4" marker-end="url(#arrowY)"/>
  <line x1="640" y1="230" x2="890" y2="368" stroke="#9aa0a6" stroke-width="1.8" stroke-dasharray="4 4" marker-end="url(#arrowG)"/>

  <!-- ===== NODER ===== -->
  <!-- Frode -->
  <rect x="400" y="86" width="240" height="52" rx="10" fill="#e8f0fe" stroke="#1a73e8" stroke-width="2"/>
  <text x="520" y="117" font-size="15" font-weight="bold" fill="#174ea6" text-anchor="middle">Frode  ·  Telegram</text>

  <!-- Agent -->
  <rect x="400" y="160" width="240" height="76" rx="12" fill="#ede7f6" stroke="#5e35b1" stroke-width="2.5"/>
  <text x="520" y="192" font-size="15" font-weight="bold" fill="#4527a0" text-anchor="middle">OpenClaw hovedagent</text>
  <text x="520" y="212" font-size="12" fill="#5f6368" text-anchor="middle">(Claude Opus)</text>

  <!-- Memory -->
  <rect x="150" y="150" width="200" height="52" rx="10" fill="#fff8e1" stroke="#f9a825" stroke-width="2"/>
  <text x="250" y="172" font-size="13" font-weight="bold" fill="#8d6e00" text-anchor="middle">Memory</text>
  <text x="250" y="189" font-size="11" fill="#5f6368" text-anchor="middle">MEMORY.md + notater</text>

  <!-- Cron -->
  <rect x="150" y="222" width="200" height="52" rx="10" fill="#e0f2f1" stroke="#00897b" stroke-width="2"/>
  <text x="250" y="253" font-size="13" font-weight="bold" fill="#00695c" text-anchor="middle">Cron-planlegger</text>

  <!-- Verktøy-kolonne -->
  <rect x="890" y="150" width="250" height="52" rx="10" fill="#e6f4ea" stroke="#1e8e3e" stroke-width="2"/>
  <text x="1015" y="172" font-size="13" font-weight="bold" fill="#137333" text-anchor="middle">Brave Search API</text>
  <text x="1015" y="189" font-size="11" fill="#5f6368" text-anchor="middle">web-søk · AKTIV</text>

  <rect x="890" y="214" width="250" height="52" rx="10" fill="#e6f4ea" stroke="#1e8e3e" stroke-width="2"/>
  <text x="1015" y="236" font-size="13" font-weight="bold" fill="#137333" text-anchor="middle">HubSpot MCP</text>
  <text x="1015" y="253" font-size="11" fill="#5f6368" text-anchor="middle">CRM · AKTIV</text>

  <rect x="890" y="278" width="250" height="52" rx="10" fill="#fffdf2" stroke="#f9a825" stroke-width="2" stroke-dasharray="6 4"/>
  <text x="1015" y="300" font-size="13" font-weight="bold" fill="#8d6e00" text-anchor="middle">O365 Graph MCP</text>
  <text x="1015" y="317" font-size="11" fill="#5f6368" text-anchor="middle">kalender + kladd · PLANLAGT</text>

  <rect x="890" y="342" width="250" height="52" rx="10" fill="#f1f3f4" stroke="#9aa0a6" stroke-width="2" stroke-dasharray="4 4"/>
  <text x="1015" y="364" font-size="13" font-weight="bold" fill="#80868b" text-anchor="middle">Diakonhjemmet MCP</text>
  <text x="1015" y="381" font-size="11" fill="#80868b" text-anchor="middle">InfluxDB batteri · PARKERT</text>

  <!-- Cron-pills -->
  <rect x="70" y="330" width="250" height="50" rx="10" fill="#e0f2f1" stroke="#00897b" stroke-width="2"/>
  <text x="195" y="352" font-size="13" font-weight="bold" fill="#00695c" text-anchor="middle">📅 Morgenbrief</text>
  <text x="195" y="369" font-size="11" fill="#5f6368" text-anchor="middle">07:00 hverdager</text>

  <rect x="350" y="330" width="250" height="50" rx="10" fill="#e0f2f1" stroke="#00897b" stroke-width="2"/>
  <text x="475" y="352" font-size="13" font-weight="bold" fill="#00695c" text-anchor="middle">📈 Insider-radar</text>
  <text x="475" y="369" font-size="11" fill="#5f6368" text-anchor="middle">07:10 hverdager</text>

  <rect x="630" y="330" width="250" height="50" rx="10" fill="#e0f2f1" stroke="#00897b" stroke-width="2"/>
  <text x="755" y="352" font-size="13" font-weight="bold" fill="#00695c" text-anchor="middle">💾 Ukentlig backup</text>
  <text x="755" y="369" font-size="11" fill="#5f6368" text-anchor="middle">søndag 03:00</text>

  <!-- Skript -->
  <rect x="70" y="430" width="250" height="48" rx="9" fill="#f5f5f5" stroke="#546e7a" stroke-width="2"/>
  <text x="195" y="459" font-size="13" font-weight="bold" fill="#37474f" text-anchor="middle">lead-radar/doffin.py</text>

  <rect x="350" y="430" width="250" height="48" rx="9" fill="#f5f5f5" stroke="#546e7a" stroke-width="2"/>
  <text x="475" y="459" font-size="13" font-weight="bold" fill="#37474f" text-anchor="middle">insider-radar/fetch.py</text>

  <rect x="630" y="430" width="250" height="48" rx="9" fill="#f5f5f5" stroke="#546e7a" stroke-width="2"/>
  <text x="755" y="459" font-size="13" font-weight="bold" fill="#37474f" text-anchor="middle">backup/backup.sh</text>

  <!-- Eksterne / target -->
  <rect x="70" y="528" width="250" height="54" rx="10" fill="#e1f5fe" stroke="#0277bd" stroke-width="2"/>
  <text x="195" y="550" font-size="13" font-weight="bold" fill="#01579b" text-anchor="middle">Doffin søke-API</text>
  <text x="195" y="567" font-size="11" fill="#5f6368" text-anchor="middle">offentlige anbud (IoT)</text>

  <rect x="350" y="528" width="250" height="54" rx="10" fill="#e1f5fe" stroke="#0277bd" stroke-width="2"/>
  <text x="475" y="550" font-size="13" font-weight="bold" fill="#01579b" text-anchor="middle">Oslo Børs Newsweb API</text>
  <text x="475" y="567" font-size="11" fill="#5f6368" text-anchor="middle">meldepliktig handel</text>

  <rect x="630" y="528" width="250" height="54" rx="10" fill="#fff3e0" stroke="#ef6c00" stroke-width="2"/>
  <text x="755" y="550" font-size="13" font-weight="bold" fill="#e65100" text-anchor="middle">GitHub (privat) BRE-AI-1</text>
  <text x="755" y="567" font-size="11" fill="#5f6368" text-anchor="middle">SSH deploy key · off-site</text>

  <!-- Legend -->
  <rect x="905" y="430" width="235" height="152" rx="10" fill="#fafafa" stroke="#dadce0" stroke-width="1.5"/>
  <text x="920" y="452" font-size="12" font-weight="bold" fill="#202124">Tegnforklaring</text>
  <rect x="920" y="463" width="18" height="13" rx="3" fill="#e6f4ea" stroke="#1e8e3e" stroke-width="2"/>
  <text x="946" y="474" font-size="12" fill="#3c4043">Aktiv</text>
  <rect x="920" y="487" width="18" height="13" rx="3" fill="#fffdf2" stroke="#f9a825" stroke-width="2" stroke-dasharray="4 3"/>
  <text x="946" y="498" font-size="12" fill="#3c4043">Planlagt (venter på IT)</text>
  <rect x="920" y="511" width="18" height="13" rx="3" fill="#f1f3f4" stroke="#9aa0a6" stroke-width="2" stroke-dasharray="3 3"/>
  <text x="946" y="522" font-size="12" fill="#3c4043">Parkert</text>
  <line x1="920" y1="540" x2="940" y2="540" stroke="#5f6368" stroke-width="2" marker-end="url(#arrow)"/>
  <text x="946" y="544" font-size="12" fill="#3c4043">Dataflyt / trigger</text>
  <text x="920" y="566" font-size="10.5" fill="#80868b">Blå = ekstern kilde · Oransje = backup</text>

  <!-- Footnote -->
  <text x="40" y="616" font-size="11.5" fill="#5f6368">Flyt: Cron trigger → agenten kjører skript → henter data fra API → agenten sender ferdig brief til Frode på Telegram.</text>
  <text x="40" y="633" font-size="11.5" fill="#5f6368">Backup: lokal git → GitHub (kun kode + redigert config + memory — ingen hemmeligheter). Ukentlig auto-push.</text>
</svg>
